<svg height="350pt" viewBox="0 -136 350.00001 350" width="350pt" xmlns="http://www.w3.org/2000/svg"><g fill="#00efd1"><path d="m350 39.429688c0 21.777343-17.652344 39.429687-39.429688 39.429687-21.777343 0-39.429687-17.652344-39.429687-39.429687 0-21.777344 17.652344-39.429688 39.429687-39.429688 21.777344 0 39.429688 17.652344 39.429688 39.429688zm0 0"/><path d="m214.429688 39.429688c0 21.777343-17.652344 39.429687-39.429688 39.429687s-39.429688-17.652344-39.429688-39.429687c0-21.777344 17.652344-39.429688 39.429688-39.429688s39.429688 17.652344 39.429688 39.429688zm0 0"/><path d="m78.859375 39.429688c0 21.777343-17.652344 39.429687-39.429687 39.429687-21.777344 0-39.429688-17.652344-39.429688-39.429687 0-21.777344 17.652344-39.429688 39.429688-39.429688 21.777343 0 39.429687 17.652344 39.429687 39.429688zm0 0"/></g></svg>